<svg width="24" height="11" viewBox="0 0 24 11" fill="none" xmlns="http://www.w3.org/2000/svg">
<g clip-path="url(#clip0_4_2136)">
<path d="M11 5.34961C11 5.59582 11.4477 5.79542 12 5.79542C12.5523 5.79542 13 5.59582 13 5.34961C13 5.1034 12.5523 4.90381 12 4.90381C11.4477 4.90381 11 5.1034 11 5.34961Z" stroke="#CBD5E0" stroke-width="2" stroke-linecap="round" stroke-linejoin="round"/>
<path d="M4 5.34961C4 5.59582 4.44772 5.79542 5 5.79542C5.55229 5.79542 6 5.59582 6 5.34961C6 5.1034 5.55229 4.90381 5 4.90381C4.44772 4.90381 4 5.1034 4 5.34961Z" stroke="#CBD5E0" stroke-width="2" stroke-linecap="round" stroke-linejoin="round"/>
<path d="M18 5.34961C18 5.59582 18.4477 5.79542 19 5.79542C19.5523 5.79542 20 5.59582 20 5.34961C20 5.1034 19.5523 4.90381 19 4.90381C18.4477 4.90381 18 5.1034 18 5.34961Z" stroke="#CBD5E0" stroke-width="2" stroke-linecap="round" stroke-linejoin="round"/>
</g>
<defs>
<clipPath id="clip0_4_2136">
<rect width="10.6993" height="24" fill="white" transform="translate(24) rotate(90)"/>
</clipPath>
</defs>
</svg>
